<svg width="220" height="27" viewBox="0 0 220 27" fill="none" xmlns="http://www.w3.org/2000/svg">
<path d="M2.46 24C2.24 24 2.05 23.92 1.89 23.76C1.73 23.6 1.65 23.41 1.65 23.19V3.81C1.65 3.59 1.73 3.4 1.89 3.24C2.05 3.08 2.24 3 2.46 3H11.1C12.98 3 14.66 3.32 16.14 3.96C17.62 4.58 18.8 5.5 19.68 6.72C20.58 7.94 21.06 9.45 21.12 11.25C21.16 12.11 21.18 12.87 21.18 13.53C21.18 14.17 21.16 14.9 21.12 15.72C21.04 17.6 20.58 19.16 19.74 20.4C18.9 21.62 17.75 22.53 16.29 23.13C14.85 23.71 13.17 24 11.25 24H2.46ZM9.15 18.15H11.1C11.54 18.15 11.93 18.07 12.27 17.91C12.63 17.73 12.92 17.46 13.14 17.1C13.36 16.74 13.48 16.28 13.5 15.72C13.54 15.14 13.56 14.62 13.56 14.16C13.58 13.7 13.58 13.24 13.56 12.78C13.56 12.3 13.54 11.79 13.5 11.25C13.46 10.41 13.19 9.8 12.69 9.42C12.21 9.04 11.63 8.85 10.95 8.85H9.15V18.15ZM33.427 24.3C31.507 24.3 29.807 24.01 28.327 23.43C26.867 22.85 25.727 21.95 24.907 20.73C24.087 19.51 23.677 17.96 23.677 16.08V3.81C23.677 3.59 23.757 3.4 23.917 3.24C24.077 3.08 24.267 3 24.487 3H30.367C30.587 3 30.777 3.08 30.937 3.24C31.097 3.4 31.177 3.59 31.177 3.81V15.96C31.177 16.7 31.357 17.27 31.717 17.67C32.097 18.07 32.657 18.27 33.397 18.27C34.137 18.27 34.687 18.07 35.047 17.67C35.427 17.27 35.617 16.7 35.617 15.96V3.81C35.617 3.59 35.697 3.4 35.857 3.24C36.017 3.08 36.207 3 36.427 3H42.307C42.527 3 42.717 3.08 42.877 3.24C43.037 3.4 43.117 3.59 43.117 3.81V16.08C43.117 17.96 42.707 19.51 41.887 20.73C41.067 21.95 39.927 22.85 38.467 23.43C37.007 24.01 35.327 24.3 33.427 24.3ZM47.0498 24C46.8298 24 46.6398 23.92 46.4798 23.76C46.3198 23.6 46.2398 23.41 46.2398 23.19V3.81C46.2398 3.59 46.3198 3.4 46.4798 3.24C46.6398 3.08 46.8298 3 47.0498 3H51.7898C52.1898 3 52.4798 3.09 52.6598 3.27C52.8398 3.45 52.9598 3.59 53.0198 3.69L58.0898 12V3.81C58.0898 3.59 58.1698 3.4 58.3298 3.24C58.4898 3.08 58.6798 3 58.8998 3H64.3298C64.5498 3 64.7398 3.08 64.8998 3.24C65.0598 3.4 65.1398 3.59 65.1398 3.81V23.19C65.1398 23.41 65.0598 23.6 64.8998 23.76C64.7398 23.92 64.5498 24 64.3298 24H59.5898C59.1898 24 58.8998 23.91 58.7198 23.73C58.5398 23.53 58.4198 23.39 58.3598 23.31L53.2898 15.66V23.19C53.2898 23.41 53.2098 23.6 53.0498 23.76C52.8898 23.92 52.6998 24 52.4798 24H47.0498ZM69.2569 24C69.0369 24 68.8469 23.92 68.6869 23.76C68.5269 23.6 68.4469 23.41 68.4469 23.19V3.81C68.4469 3.59 68.5269 3.4 68.6869 3.24C68.8469 3.08 69.0369 3 69.2569 3H74.9869C75.2069 3 75.3969 3.08 75.5569 3.24C75.7169 3.4 75.7969 3.59 75.7969 3.81V9.75L79.1869 3.66C79.2869 3.5 79.4269 3.35 79.6069 3.21C79.8069 3.07 80.0669 3 80.3869 3H87.0169C87.1969 3 87.3469 3.07 87.4669 3.21C87.6069 3.33 87.6769 3.48 87.6769 3.66C87.6769 3.78 87.6469 3.89 87.5869 3.99L82.1869 13.05L88.0969 23.01C88.1569 23.09 88.1869 23.2 88.1869 23.34C88.1869 23.52 88.1169 23.68 87.9769 23.82C87.8569 23.94 87.7069 24 87.5269 24H80.6869C80.2869 24 79.9869 23.91 79.7869 23.73C79.6069 23.53 79.4969 23.39 79.4569 23.31L75.7969 16.77V23.19C75.7969 23.41 75.7169 23.6 75.5569 23.76C75.3969 23.92 75.2069 24 74.9869 24H69.2569Z" fill="black"/>
<path d="M98.844 13C98.756 13 98.68 12.968 98.616 12.904C98.552 12.84 98.52 12.764 98.52 12.676V7.18H96.528C96.44 7.18 96.364 7.148 96.3 7.084C96.236 7.02 96.204 6.944 96.204 6.856V4.924C96.204 4.836 96.236 4.76 96.3 4.696C96.364 4.632 96.44 4.6 96.528 4.6H103.56C103.648 4.6 103.724 4.632 103.788 4.696C103.852 4.76 103.884 4.836 103.884 4.924V6.856C103.884 6.944 103.852 7.02 103.788 7.084C103.724 7.148 103.648 7.18 103.56 7.18H101.568V12.676C101.568 12.764 101.536 12.84 101.472 12.904C101.408 12.968 101.332 13 101.244 13H98.844ZM104.634 13C104.546 13 104.47 12.968 104.406 12.904C104.342 12.84 104.31 12.764 104.31 12.676V7.084C104.31 6.996 104.342 6.92 104.406 6.856C104.47 6.792 104.546 6.76 104.634 6.76H106.734C106.822 6.76 106.898 6.792 106.962 6.856C107.026 6.92 107.058 6.996 107.058 7.084V7.504C107.314 7.28 107.598 7.1 107.91 6.964C108.23 6.828 108.57 6.76 108.93 6.76H109.506C109.594 6.76 109.67 6.792 109.734 6.856C109.798 6.92 109.83 6.996 109.83 7.084V8.956C109.83 9.044 109.798 9.12 109.734 9.184C109.67 9.248 109.594 9.28 109.506 9.28H107.958C107.718 9.28 107.538 9.34 107.418 9.46C107.298 9.58 107.238 9.76 107.238 10V12.676C107.238 12.764 107.206 12.84 107.142 12.904C107.078 12.968 107.002 13 106.914 13H104.634ZM110.844 13C110.756 13 110.68 12.968 110.616 12.904C110.552 12.84 110.52 12.764 110.52 12.676V7.084C110.52 6.996 110.552 6.92 110.616 6.856C110.68 6.792 110.756 6.76 110.844 6.76H112.992C113.08 6.76 113.156 6.792 113.22 6.856C113.284 6.92 113.316 6.996 113.316 7.084V12.676C113.316 12.764 113.284 12.84 113.22 12.904C113.156 12.968 113.08 13 112.992 13H110.844ZM110.904 6.1C110.816 6.1 110.74 6.068 110.676 6.004C110.612 5.94 110.58 5.864 110.58 5.776V4.324C110.58 4.236 110.612 4.16 110.676 4.096C110.74 4.032 110.816 4 110.904 4H112.932C113.02 4 113.096 4.032 113.16 4.096C113.224 4.16 113.256 4.236 113.256 4.324V5.776C113.256 5.864 113.224 5.94 113.16 6.004C113.096 6.068 113.02 6.1 112.932 6.1H110.904ZM117.579 13.12C116.971 13.12 116.419 13.016 115.923 12.808C115.427 12.592 115.027 12.28 114.723 11.872C114.419 11.464 114.251 10.964 114.219 10.372C114.211 10.244 114.207 10.084 114.207 9.892C114.207 9.7 114.211 9.536 114.219 9.4C114.251 8.808 114.415 8.308 114.711 7.9C115.015 7.484 115.415 7.172 115.911 6.964C116.415 6.748 116.971 6.64 117.579 6.64C118.211 6.64 118.747 6.732 119.187 6.916C119.635 7.092 119.995 7.312 120.267 7.576C120.547 7.832 120.751 8.088 120.879 8.344C121.015 8.6 121.087 8.808 121.095 8.968C121.103 9.056 121.071 9.132 120.999 9.196C120.935 9.26 120.859 9.292 120.771 9.292H118.431C118.343 9.292 118.271 9.272 118.215 9.232C118.167 9.184 118.123 9.124 118.083 9.052C118.027 8.94 117.967 8.852 117.903 8.788C117.847 8.724 117.759 8.692 117.639 8.692C117.455 8.692 117.331 8.76 117.267 8.896C117.203 9.032 117.167 9.22 117.159 9.46C117.151 9.804 117.151 10.088 117.159 10.312C117.175 10.568 117.211 10.76 117.267 10.888C117.331 11.008 117.455 11.068 117.639 11.068C117.783 11.068 117.879 11.036 117.927 10.972C117.983 10.908 118.035 10.82 118.083 10.708C118.115 10.636 118.159 10.58 118.215 10.54C118.271 10.492 118.343 10.468 118.431 10.468H120.771C120.859 10.468 120.935 10.5 120.999 10.564C121.071 10.628 121.103 10.704 121.095 10.792C121.087 10.896 121.043 11.044 120.963 11.236C120.891 11.42 120.771 11.62 120.603 11.836C120.443 12.052 120.227 12.26 119.955 12.46C119.683 12.652 119.351 12.812 118.959 12.94C118.567 13.06 118.107 13.12 117.579 13.12ZM122.188 13C122.1 13 122.024 12.968 121.96 12.904C121.896 12.84 121.864 12.764 121.864 12.676V4.804C121.864 4.716 121.896 4.64 121.96 4.576C122.024 4.512 122.1 4.48 122.188 4.48H124.288C124.376 4.48 124.452 4.512 124.516 4.576C124.58 4.64 124.612 4.716 124.612 4.804V8.692L125.668 6.964C125.684 6.932 125.72 6.892 125.776 6.844C125.832 6.788 125.912 6.76 126.016 6.76H128.44C128.52 6.76 128.588 6.788 128.644 6.844C128.7 6.9 128.728 6.968 128.728 7.048C128.728 7.08 128.72 7.116 128.704 7.156C128.696 7.188 128.684 7.212 128.668 7.228L127.024 9.568L128.968 12.556C129 12.604 129.016 12.656 129.016 12.712C129.016 12.792 128.988 12.86 128.932 12.916C128.876 12.972 128.808 13 128.728 13H126.208C126.088 13 126 12.972 125.944 12.916C125.888 12.852 125.852 12.812 125.836 12.796L124.612 10.756V12.676C124.612 12.764 124.58 12.84 124.516 12.904C124.452 12.968 124.376 13 124.288 13H122.188ZM129.677 10.576C129.589 10.576 129.513 10.544 129.449 10.48C129.385 10.416 129.353 10.34 129.353 10.252V8.548C129.353 8.46 129.385 8.384 129.449 8.32C129.513 8.256 129.589 8.224 129.677 8.224H133.577C133.665 8.224 133.741 8.256 133.805 8.32C133.869 8.384 133.901 8.46 133.901 8.548V10.252C133.901 10.34 133.869 10.416 133.805 10.48C133.741 10.544 133.665 10.576 133.577 10.576H129.677ZM138.853 13C138.277 13 137.761 12.924 137.305 12.772C136.857 12.612 136.501 12.344 136.237 11.968C135.981 11.592 135.853 11.076 135.853 10.42V8.86H134.905C134.817 8.86 134.741 8.828 134.677 8.764C134.613 8.7 134.581 8.624 134.581 8.536V7.084C134.581 6.996 134.613 6.92 134.677 6.856C134.741 6.792 134.817 6.76 134.905 6.76H135.853V4.804C135.853 4.716 135.885 4.64 135.949 4.576C136.013 4.512 136.089 4.48 136.177 4.48H138.277C138.365 4.48 138.441 4.512 138.505 4.576C138.569 4.64 138.601 4.716 138.601 4.804V6.76H140.113C140.201 6.76 140.277 6.792 140.341 6.856C140.405 6.92 140.437 6.996 140.437 7.084V8.536C140.437 8.624 140.405 8.7 140.341 8.764C140.277 8.828 140.201 8.86 140.113 8.86H138.601V10.18C138.601 10.364 138.641 10.512 138.721 10.624C138.809 10.728 138.941 10.78 139.117 10.78H140.209C140.297 10.78 140.373 10.812 140.437 10.876C140.501 10.94 140.533 11.016 140.533 11.104V12.676C140.533 12.764 140.501 12.84 140.437 12.904C140.373 12.968 140.297 13 140.209 13H138.853ZM143.368 13.12C142.912 13.12 142.508 13.036 142.156 12.868C141.804 12.7 141.528 12.472 141.328 12.184C141.136 11.896 141.04 11.572 141.04 11.212C141.04 10.628 141.276 10.172 141.748 9.844C142.228 9.508 142.868 9.272 143.668 9.136L144.94 8.932V8.92C144.94 8.712 144.92 8.56 144.88 8.464C144.848 8.368 144.748 8.32 144.58 8.32C144.468 8.32 144.376 8.344 144.304 8.392C144.24 8.432 144.168 8.492 144.088 8.572C144 8.66 143.888 8.704 143.752 8.704H141.712C141.632 8.704 141.564 8.68 141.508 8.632C141.46 8.584 141.44 8.52 141.448 8.44C141.456 8.288 141.52 8.112 141.64 7.912C141.76 7.704 141.944 7.504 142.192 7.312C142.448 7.12 142.772 6.96 143.164 6.832C143.564 6.704 144.044 6.64 144.604 6.64C145.148 6.64 145.62 6.7 146.02 6.82C146.428 6.932 146.764 7.1 147.028 7.324C147.292 7.54 147.488 7.812 147.616 8.14C147.752 8.46 147.82 8.824 147.82 9.232V12.676C147.82 12.764 147.788 12.84 147.724 12.904C147.66 12.968 147.584 13 147.496 13H145.396C145.308 13 145.232 12.968 145.168 12.904C145.104 12.84 145.072 12.764 145.072 12.676V12.34C144.96 12.5 144.816 12.64 144.64 12.76C144.472 12.872 144.28 12.96 144.064 13.024C143.848 13.088 143.616 13.12 143.368 13.12ZM144.196 11.344C144.356 11.344 144.492 11.312 144.604 11.248C144.724 11.184 144.816 11.084 144.88 10.948C144.944 10.804 144.976 10.628 144.976 10.42V10.408L144.268 10.564C144.06 10.612 143.92 10.676 143.848 10.756C143.776 10.836 143.74 10.92 143.74 11.008C143.74 11.064 143.756 11.12 143.788 11.176C143.828 11.224 143.88 11.264 143.944 11.296C144.016 11.328 144.1 11.344 144.196 11.344ZM149.165 13C149.077 13 149.001 12.968 148.937 12.904C148.873 12.84 148.841 12.764 148.841 12.676V4.804C148.841 4.716 148.873 4.64 148.937 4.576C149.001 4.512 149.077 4.48 149.165 4.48H151.265C151.353 4.48 151.429 4.512 151.493 4.576C151.557 4.64 151.589 4.716 151.589 4.804V8.692L152.645 6.964C152.661 6.932 152.697 6.892 152.753 6.844C152.809 6.788 152.889 6.76 152.993 6.76H155.417C155.497 6.76 155.565 6.788 155.621 6.844C155.677 6.9 155.705 6.968 155.705 7.048C155.705 7.08 155.697 7.116 155.681 7.156C155.673 7.188 155.661 7.212 155.645 7.228L154.001 9.568L155.945 12.556C155.977 12.604 155.993 12.656 155.993 12.712C155.993 12.792 155.965 12.86 155.909 12.916C155.853 12.972 155.785 13 155.705 13H153.185C153.065 13 152.977 12.972 152.921 12.916C152.865 12.852 152.829 12.812 152.813 12.796L151.589 10.756V12.676C151.589 12.764 151.557 12.84 151.493 12.904C151.429 12.968 151.353 13 151.265 13H149.165ZM156.876 13C156.788 13 156.712 12.968 156.648 12.904C156.584 12.84 156.552 12.764 156.552 12.676V7.084C156.552 6.996 156.584 6.92 156.648 6.856C156.712 6.792 156.788 6.76 156.876 6.76H159.024C159.112 6.76 159.188 6.792 159.252 6.856C159.316 6.92 159.348 6.996 159.348 7.084V12.676C159.348 12.764 159.316 12.84 159.252 12.904C159.188 12.968 159.112 13 159.024 13H156.876ZM156.936 6.1C156.848 6.1 156.772 6.068 156.708 6.004C156.644 5.94 156.612 5.864 156.612 5.776V4.324C156.612 4.236 156.644 4.16 156.708 4.096C156.772 4.032 156.848 4 156.936 4H158.964C159.052 4 159.128 4.032 159.192 4.096C159.256 4.16 159.288 4.236 159.288 4.324V5.776C159.288 5.864 159.256 5.94 159.192 6.004C159.128 6.068 159.052 6.1 158.964 6.1H156.936ZM160.755 13C160.667 13 160.591 12.968 160.527 12.904C160.463 12.84 160.431 12.764 160.431 12.676V7.084C160.431 6.996 160.463 6.92 160.527 6.856C160.591 6.792 160.667 6.76 160.755 6.76H162.855C162.943 6.76 163.019 6.792 163.083 6.856C163.147 6.92 163.179 6.996 163.179 7.084V7.48C163.379 7.248 163.655 7.052 164.007 6.892C164.359 6.724 164.747 6.64 165.171 6.64C165.579 6.64 165.959 6.736 166.311 6.928C166.663 7.12 166.947 7.416 167.163 7.816C167.387 8.216 167.499 8.732 167.499 9.364V12.676C167.499 12.764 167.467 12.84 167.403 12.904C167.339 12.968 167.263 13 167.175 13H164.883C164.795 13 164.719 12.968 164.655 12.904C164.591 12.84 164.559 12.764 164.559 12.676V9.448C164.559 9.232 164.507 9.068 164.403 8.956C164.299 8.844 164.151 8.788 163.959 8.788C163.767 8.788 163.619 8.844 163.515 8.956C163.411 9.068 163.359 9.232 163.359 9.448V12.676C163.359 12.764 163.327 12.84 163.263 12.904C163.199 12.968 163.123 13 163.035 13H160.755ZM172.033 15.64C171.353 15.64 170.785 15.552 170.329 15.376C169.881 15.208 169.521 15 169.249 14.752C168.977 14.512 168.781 14.272 168.661 14.032C168.541 13.8 168.477 13.62 168.469 13.492C168.461 13.404 168.489 13.328 168.553 13.264C168.625 13.2 168.705 13.168 168.793 13.168H171.133C171.221 13.168 171.289 13.188 171.337 13.228C171.393 13.276 171.437 13.336 171.469 13.408C171.509 13.472 171.549 13.528 171.589 13.576C171.629 13.624 171.677 13.656 171.733 13.672C171.797 13.696 171.877 13.708 171.973 13.708C172.093 13.708 172.189 13.68 172.261 13.624C172.341 13.576 172.397 13.5 172.429 13.396C172.469 13.292 172.489 13.16 172.489 13V12.208C172.305 12.368 172.081 12.496 171.817 12.592C171.553 12.68 171.245 12.724 170.893 12.724C170.517 12.724 170.177 12.676 169.873 12.58C169.569 12.484 169.309 12.332 169.093 12.124C168.877 11.908 168.705 11.628 168.577 11.284C168.449 10.94 168.373 10.516 168.349 10.012C168.341 9.804 168.341 9.6 168.349 9.4C168.373 8.928 168.445 8.52 168.565 8.176C168.693 7.824 168.865 7.536 169.081 7.312C169.305 7.088 169.569 6.92 169.873 6.808C170.177 6.696 170.517 6.64 170.893 6.64C171.285 6.64 171.629 6.716 171.925 6.868C172.229 7.02 172.477 7.216 172.669 7.456V7.084C172.669 6.996 172.701 6.92 172.765 6.856C172.829 6.792 172.905 6.76 172.993 6.76H175.093C175.181 6.76 175.257 6.792 175.321 6.856C175.385 6.92 175.417 6.996 175.417 7.084L175.429 12.796C175.429 13.468 175.277 14.012 174.973 14.428C174.669 14.844 174.261 15.148 173.749 15.34C173.237 15.54 172.665 15.64 172.033 15.64ZM171.889 10.636C172.025 10.636 172.133 10.612 172.213 10.564C172.301 10.516 172.365 10.448 172.405 10.36C172.453 10.272 172.481 10.164 172.489 10.036C172.497 9.972 172.501 9.864 172.501 9.712C172.501 9.552 172.497 9.444 172.489 9.388C172.481 9.26 172.453 9.152 172.405 9.064C172.365 8.976 172.301 8.908 172.213 8.86C172.133 8.812 172.025 8.788 171.889 8.788C171.745 8.788 171.629 8.816 171.541 8.872C171.461 8.928 171.401 9.008 171.361 9.112C171.329 9.216 171.305 9.34 171.289 9.484C171.273 9.636 171.273 9.788 171.289 9.94C171.305 10.084 171.329 10.208 171.361 10.312C171.401 10.416 171.461 10.496 171.541 10.552C171.629 10.608 171.745 10.636 171.889 10.636ZM176.449 13.9C176.377 13.9 176.313 13.872 176.257 13.816C176.201 13.768 176.177 13.708 176.185 13.636L176.629 10.732C176.645 10.62 176.693 10.516 176.773 10.42C176.861 10.316 176.985 10.264 177.145 10.264H179.065C179.137 10.264 179.197 10.292 179.245 10.348C179.301 10.396 179.329 10.456 179.329 10.528C179.329 10.56 179.325 10.588 179.317 10.612L178.177 13.516C178.145 13.596 178.089 13.68 178.009 13.768C177.937 13.856 177.821 13.9 177.661 13.9H176.449ZM182.692 13C182.604 13 182.528 12.968 182.464 12.904C182.4 12.84 182.368 12.764 182.368 12.676V7.084C182.368 6.996 182.4 6.92 182.464 6.856C182.528 6.792 182.604 6.76 182.692 6.76H184.792C184.88 6.76 184.956 6.792 185.02 6.856C185.084 6.92 185.116 6.996 185.116 7.084V7.504C185.372 7.28 185.656 7.1 185.968 6.964C186.288 6.828 186.628 6.76 186.988 6.76H187.564C187.652 6.76 187.728 6.792 187.792 6.856C187.856 6.92 187.888 6.996 187.888 7.084V8.956C187.888 9.044 187.856 9.12 187.792 9.184C187.728 9.248 187.652 9.28 187.564 9.28H186.016C185.776 9.28 185.596 9.34 185.476 9.46C185.356 9.58 185.296 9.76 185.296 10V12.676C185.296 12.764 185.264 12.84 185.2 12.904C185.136 12.968 185.06 13 184.972 13H182.692ZM188.903 13C188.815 13 188.739 12.968 188.675 12.904C188.611 12.84 188.579 12.764 188.579 12.676V7.084C188.579 6.996 188.611 6.92 188.675 6.856C188.739 6.792 188.815 6.76 188.903 6.76H191.051C191.139 6.76 191.215 6.792 191.279 6.856C191.343 6.92 191.375 6.996 191.375 7.084V12.676C191.375 12.764 191.343 12.84 191.279 12.904C191.215 12.968 191.139 13 191.051 13H188.903ZM188.963 6.1C188.875 6.1 188.799 6.068 188.735 6.004C188.671 5.94 188.639 5.864 188.639 5.776V4.324C188.639 4.236 188.671 4.16 188.735 4.096C188.799 4.032 188.875 4 188.963 4H190.991C191.079 4 191.155 4.032 191.219 4.096C191.283 4.16 191.315 4.236 191.315 4.324V5.776C191.315 5.864 191.283 5.94 191.219 6.004C191.155 6.068 191.079 6.1 190.991 6.1H188.963ZM192.782 13C192.694 13 192.618 12.968 192.554 12.904C192.49 12.84 192.458 12.764 192.458 12.676V7.084C192.458 6.996 192.49 6.92 192.554 6.856C192.618 6.792 192.694 6.76 192.782 6.76H194.762C194.85 6.76 194.926 6.792 194.99 6.856C195.054 6.92 195.086 6.996 195.086 7.084V7.48C195.222 7.296 195.434 7.116 195.722 6.94C196.018 6.756 196.362 6.656 196.754 6.64C197.698 6.608 198.33 6.936 198.65 7.624C198.834 7.344 199.094 7.112 199.43 6.928C199.766 6.736 200.118 6.64 200.486 6.64C200.894 6.64 201.262 6.732 201.59 6.916C201.926 7.1 202.194 7.388 202.394 7.78C202.594 8.172 202.694 8.684 202.694 9.316V12.676C202.694 12.764 202.662 12.84 202.598 12.904C202.534 12.968 202.458 13 202.37 13H200.258C200.17 13 200.094 12.968 200.03 12.904C199.966 12.84 199.934 12.764 199.934 12.676V9.376C199.934 9.248 199.914 9.14 199.874 9.052C199.834 8.964 199.778 8.9 199.706 8.86C199.642 8.812 199.558 8.788 199.454 8.788C199.358 8.788 199.274 8.812 199.202 8.86C199.13 8.9 199.074 8.964 199.034 9.052C199.002 9.14 198.986 9.248 198.986 9.376V12.676C198.986 12.764 198.954 12.84 198.89 12.904C198.826 12.968 198.75 13 198.662 13H196.55C196.462 13 196.386 12.968 196.322 12.904C196.258 12.84 196.226 12.764 196.226 12.676V9.376C196.226 9.248 196.206 9.14 196.166 9.052C196.126 8.964 196.07 8.9 195.998 8.86C195.934 8.812 195.85 8.788 195.746 8.788C195.65 8.788 195.566 8.812 195.494 8.86C195.422 8.908 195.366 8.976 195.326 9.064C195.286 9.144 195.266 9.248 195.266 9.376V12.676C195.266 12.764 195.234 12.84 195.17 12.904C195.106 12.968 195.03 13 194.942 13H192.782ZM204.056 10.576C203.968 10.576 203.892 10.544 203.828 10.48C203.764 10.416 203.732 10.34 203.732 10.252V8.548C203.732 8.46 203.764 8.384 203.828 8.32C203.892 8.256 203.968 8.224 204.056 8.224H207.956C208.044 8.224 208.12 8.256 208.184 8.32C208.248 8.384 208.28 8.46 208.28 8.548V10.252C208.28 10.34 208.248 10.416 208.184 10.48C208.12 10.544 208.044 10.576 207.956 10.576H204.056ZM96.864 24C96.776 24 96.7 23.968 96.636 23.904C96.572 23.84 96.54 23.764 96.54 23.676V18.084C96.54 17.996 96.572 17.92 96.636 17.856C96.7 17.792 96.776 17.76 96.864 17.76H98.964C99.052 17.76 99.128 17.792 99.192 17.856C99.256 17.92 99.288 17.996 99.288 18.084V18.504C99.544 18.28 99.828 18.1 100.14 17.964C100.46 17.828 100.8 17.76 101.16 17.76H101.736C101.824 17.76 101.9 17.792 101.964 17.856C102.028 17.92 102.06 17.996 102.06 18.084V19.956C102.06 20.044 102.028 20.12 101.964 20.184C101.9 20.248 101.824 20.28 101.736 20.28H100.188C99.948 20.28 99.768 20.34 99.648 20.46C99.528 20.58 99.468 20.76 99.468 21V23.676C99.468 23.764 99.436 23.84 99.372 23.904C99.308 23.968 99.232 24 99.144 24H96.864ZM104.637 24.12C104.181 24.12 103.777 24.036 103.425 23.868C103.073 23.7 102.797 23.472 102.597 23.184C102.405 22.896 102.309 22.572 102.309 22.212C102.309 21.628 102.545 21.172 103.017 20.844C103.497 20.508 104.137 20.272 104.937 20.136L106.209 19.932V19.92C106.209 19.712 106.189 19.56 106.149 19.464C106.117 19.368 106.017 19.32 105.849 19.32C105.737 19.32 105.645 19.344 105.573 19.392C105.509 19.432 105.437 19.492 105.357 19.572C105.269 19.66 105.157 19.704 105.021 19.704H102.981C102.901 19.704 102.833 19.68 102.777 19.632C102.729 19.584 102.709 19.52 102.717 19.44C102.725 19.288 102.789 19.112 102.909 18.912C103.029 18.704 103.213 18.504 103.461 18.312C103.717 18.12 104.041 17.96 104.433 17.832C104.833 17.704 105.313 17.64 105.873 17.64C106.417 17.64 106.889 17.7 107.289 17.82C107.697 17.932 108.033 18.1 108.297 18.324C108.561 18.54 108.757 18.812 108.885 19.14C109.021 19.46 109.089 19.824 109.089 20.232V23.676C109.089 23.764 109.057 23.84 108.993 23.904C108.929 23.968 108.853 24 108.765 24H106.665C106.577 24 106.501 23.968 106.437 23.904C106.373 23.84 106.341 23.764 106.341 23.676V23.34C106.229 23.5 106.085 23.64 105.909 23.76C105.741 23.872 105.549 23.96 105.333 24.024C105.117 24.088 104.885 24.12 104.637 24.12ZM105.465 22.344C105.625 22.344 105.761 22.312 105.873 22.248C105.993 22.184 106.085 22.084 106.149 21.948C106.213 21.804 106.245 21.628 106.245 21.42V21.408L105.537 21.564C105.329 21.612 105.189 21.676 105.117 21.756C105.045 21.836 105.009 21.92 105.009 22.008C105.009 22.064 105.025 22.12 105.057 22.176C105.097 22.224 105.149 22.264 105.213 22.296C105.285 22.328 105.369 22.344 105.465 22.344ZM113.927 24C113.351 24 112.835 23.924 112.379 23.772C111.931 23.612 111.575 23.344 111.311 22.968C111.055 22.592 110.927 22.076 110.927 21.42V19.86H109.979C109.891 19.86 109.815 19.828 109.751 19.764C109.687 19.7 109.655 19.624 109.655 19.536V18.084C109.655 17.996 109.687 17.92 109.751 17.856C109.815 17.792 109.891 17.76 109.979 17.76H110.927V15.804C110.927 15.716 110.959 15.64 111.023 15.576C111.087 15.512 111.163 15.48 111.251 15.48H113.351C113.439 15.48 113.515 15.512 113.579 15.576C113.643 15.64 113.675 15.716 113.675 15.804V17.76H115.187C115.275 17.76 115.351 17.792 115.415 17.856C115.479 17.92 115.511 17.996 115.511 18.084V19.536C115.511 19.624 115.479 19.7 115.415 19.764C115.351 19.828 115.275 19.86 115.187 19.86H113.675V21.18C113.675 21.364 113.715 21.512 113.795 21.624C113.883 21.728 114.015 21.78 114.191 21.78H115.283C115.371 21.78 115.447 21.812 115.511 21.876C115.575 21.94 115.607 22.016 115.607 22.104V23.676C115.607 23.764 115.575 23.84 115.511 23.904C115.447 23.968 115.371 24 115.283 24H113.927ZM120.314 24C119.738 24 119.222 23.924 118.766 23.772C118.318 23.612 117.962 23.344 117.698 22.968C117.442 22.592 117.314 22.076 117.314 21.42V19.86H116.366C116.278 19.86 116.202 19.828 116.138 19.764C116.074 19.7 116.042 19.624 116.042 19.536V18.084C116.042 17.996 116.074 17.92 116.138 17.856C116.202 17.792 116.278 17.76 116.366 17.76H117.314V15.804C117.314 15.716 117.346 15.64 117.41 15.576C117.474 15.512 117.55 15.48 117.638 15.48H119.738C119.826 15.48 119.902 15.512 119.966 15.576C120.03 15.64 120.062 15.716 120.062 15.804V17.76H121.574C121.662 17.76 121.738 17.792 121.802 17.856C121.866 17.92 121.898 17.996 121.898 18.084V19.536C121.898 19.624 121.866 19.7 121.802 19.764C121.738 19.828 121.662 19.86 121.574 19.86H120.062V21.18C120.062 21.364 120.102 21.512 120.182 21.624C120.27 21.728 120.402 21.78 120.578 21.78H121.67C121.758 21.78 121.834 21.812 121.898 21.876C121.962 21.94 121.994 22.016 121.994 22.104V23.676C121.994 23.764 121.962 23.84 121.898 23.904C121.834 23.968 121.758 24 121.67 24H120.314ZM123.161 24C123.073 24 122.997 23.968 122.933 23.904C122.869 23.84 122.837 23.764 122.837 23.676V15.804C122.837 15.716 122.869 15.64 122.933 15.576C122.997 15.512 123.073 15.48 123.161 15.48H125.309C125.397 15.48 125.473 15.512 125.537 15.576C125.601 15.64 125.633 15.716 125.633 15.804V23.676C125.633 23.764 125.601 23.84 125.537 23.904C125.473 23.968 125.397 24 125.309 24H123.161ZM127.04 24C126.952 24 126.876 23.968 126.812 23.904C126.748 23.84 126.716 23.764 126.716 23.676V18.084C126.716 17.996 126.748 17.92 126.812 17.856C126.876 17.792 126.952 17.76 127.04 17.76H129.188C129.276 17.76 129.352 17.792 129.416 17.856C129.48 17.92 129.512 17.996 129.512 18.084V23.676C129.512 23.764 129.48 23.84 129.416 23.904C129.352 23.968 129.276 24 129.188 24H127.04ZM127.1 17.1C127.012 17.1 126.936 17.068 126.872 17.004C126.808 16.94 126.776 16.864 126.776 16.776V15.324C126.776 15.236 126.808 15.16 126.872 15.096C126.936 15.032 127.012 15 127.1 15H129.128C129.216 15 129.292 15.032 129.356 15.096C129.42 15.16 129.452 15.236 129.452 15.324V16.776C129.452 16.864 129.42 16.94 129.356 17.004C129.292 17.068 129.216 17.1 129.128 17.1H127.1ZM130.919 24C130.831 24 130.755 23.968 130.691 23.904C130.627 23.84 130.595 23.764 130.595 23.676V18.084C130.595 17.996 130.627 17.92 130.691 17.856C130.755 17.792 130.831 17.76 130.919 17.76H133.019C133.107 17.76 133.183 17.792 133.247 17.856C133.311 17.92 133.343 17.996 133.343 18.084V18.48C133.543 18.248 133.819 18.052 134.171 17.892C134.523 17.724 134.911 17.64 135.335 17.64C135.743 17.64 136.123 17.736 136.475 17.928C136.827 18.12 137.111 18.416 137.327 18.816C137.551 19.216 137.663 19.732 137.663 20.364V23.676C137.663 23.764 137.631 23.84 137.567 23.904C137.503 23.968 137.427 24 137.339 24H135.047C134.959 24 134.883 23.968 134.819 23.904C134.755 23.84 134.723 23.764 134.723 23.676V20.448C134.723 20.232 134.671 20.068 134.567 19.956C134.463 19.844 134.315 19.788 134.123 19.788C133.931 19.788 133.783 19.844 133.679 19.956C133.575 20.068 133.523 20.232 133.523 20.448V23.676C133.523 23.764 133.491 23.84 133.427 23.904C133.363 23.968 133.287 24 133.199 24H130.919ZM142.197 26.64C141.517 26.64 140.949 26.552 140.493 26.376C140.045 26.208 139.685 26 139.413 25.752C139.141 25.512 138.945 25.272 138.825 25.032C138.705 24.8 138.641 24.62 138.633 24.492C138.625 24.404 138.653 24.328 138.717 24.264C138.789 24.2 138.869 24.168 138.957 24.168H141.297C141.385 24.168 141.453 24.188 141.501 24.228C141.557 24.276 141.601 24.336 141.633 24.408C141.673 24.472 141.713 24.528 141.753 24.576C141.793 24.624 141.841 24.656 141.897 24.672C141.961 24.696 142.041 24.708 142.137 24.708C142.257 24.708 142.353 24.68 142.425 24.624C142.505 24.576 142.561 24.5 142.593 24.396C142.633 24.292 142.653 24.16 142.653 24V23.208C142.469 23.368 142.245 23.496 141.981 23.592C141.717 23.68 141.409 23.724 141.057 23.724C140.681 23.724 140.341 23.676 140.037 23.58C139.733 23.484 139.473 23.332 139.257 23.124C139.041 22.908 138.869 22.628 138.741 22.284C138.613 21.94 138.537 21.516 138.513 21.012C138.505 20.804 138.505 20.6 138.513 20.4C138.537 19.928 138.609 19.52 138.729 19.176C138.857 18.824 139.029 18.536 139.245 18.312C139.469 18.088 139.733 17.92 140.037 17.808C140.341 17.696 140.681 17.64 141.057 17.64C141.449 17.64 141.793 17.716 142.089 17.868C142.393 18.02 142.641 18.216 142.833 18.456V18.084C142.833 17.996 142.865 17.92 142.929 17.856C142.993 17.792 143.069 17.76 143.157 17.76H145.257C145.345 17.76 145.421 17.792 145.485 17.856C145.549 17.92 145.581 17.996 145.581 18.084L145.593 23.796C145.593 24.468 145.441 25.012 145.137 25.428C144.833 25.844 144.425 26.148 143.913 26.34C143.401 26.54 142.829 26.64 142.197 26.64ZM142.053 21.636C142.189 21.636 142.297 21.612 142.377 21.564C142.465 21.516 142.529 21.448 142.569 21.36C142.617 21.272 142.645 21.164 142.653 21.036C142.661 20.972 142.665 20.864 142.665 20.712C142.665 20.552 142.661 20.444 142.653 20.388C142.645 20.26 142.617 20.152 142.569 20.064C142.529 19.976 142.465 19.908 142.377 19.86C142.297 19.812 142.189 19.788 142.053 19.788C141.909 19.788 141.793 19.816 141.705 19.872C141.625 19.928 141.565 20.008 141.525 20.112C141.493 20.216 141.469 20.34 141.453 20.484C141.437 20.636 141.437 20.788 141.453 20.94C141.469 21.084 141.493 21.208 141.525 21.312C141.565 21.416 141.625 21.496 141.705 21.552C141.793 21.608 141.909 21.636 142.053 21.636ZM152.079 24.12C151.471 24.12 150.919 24.016 150.423 23.808C149.927 23.592 149.527 23.28 149.223 22.872C148.919 22.464 148.751 21.964 148.719 21.372C148.711 21.244 148.707 21.084 148.707 20.892C148.707 20.7 148.711 20.536 148.719 20.4C148.751 19.808 148.915 19.308 149.211 18.9C149.515 18.484 149.915 18.172 150.411 17.964C150.915 17.748 151.471 17.64 152.079 17.64C152.711 17.64 153.247 17.732 153.687 17.916C154.135 18.092 154.495 18.312 154.767 18.576C155.047 18.832 155.251 19.088 155.379 19.344C155.515 19.6 155.587 19.808 155.595 19.968C155.603 20.056 155.571 20.132 155.499 20.196C155.435 20.26 155.359 20.292 155.271 20.292H152.931C152.843 20.292 152.771 20.272 152.715 20.232C152.667 20.184 152.623 20.124 152.583 20.052C152.527 19.94 152.467 19.852 152.403 19.788C152.347 19.724 152.259 19.692 152.139 19.692C151.955 19.692 151.831 19.76 151.767 19.896C151.703 20.032 151.667 20.22 151.659 20.46C151.651 20.804 151.651 21.088 151.659 21.312C151.675 21.568 151.711 21.76 151.767 21.888C151.831 22.008 151.955 22.068 152.139 22.068C152.283 22.068 152.379 22.036 152.427 21.972C152.483 21.908 152.535 21.82 152.583 21.708C152.615 21.636 152.659 21.58 152.715 21.54C152.771 21.492 152.843 21.468 152.931 21.468H155.271C155.359 21.468 155.435 21.5 155.499 21.564C155.571 21.628 155.603 21.704 155.595 21.792C155.587 21.896 155.543 22.044 155.463 22.236C155.391 22.42 155.271 22.62 155.103 22.836C154.943 23.052 154.727 23.26 154.455 23.46C154.183 23.652 153.851 23.812 153.459 23.94C153.067 24.06 152.607 24.12 152.079 24.12ZM158.356 24.12C157.9 24.12 157.496 24.036 157.144 23.868C156.792 23.7 156.516 23.472 156.316 23.184C156.124 22.896 156.028 22.572 156.028 22.212C156.028 21.628 156.264 21.172 156.736 20.844C157.216 20.508 157.856 20.272 158.656 20.136L159.928 19.932V19.92C159.928 19.712 159.908 19.56 159.868 19.464C159.836 19.368 159.736 19.32 159.568 19.32C159.456 19.32 159.364 19.344 159.292 19.392C159.228 19.432 159.156 19.492 159.076 19.572C158.988 19.66 158.876 19.704 158.74 19.704H156.7C156.62 19.704 156.552 19.68 156.496 19.632C156.448 19.584 156.428 19.52 156.436 19.44C156.444 19.288 156.508 19.112 156.628 18.912C156.748 18.704 156.932 18.504 157.18 18.312C157.436 18.12 157.76 17.96 158.152 17.832C158.552 17.704 159.032 17.64 159.592 17.64C160.136 17.64 160.608 17.7 161.008 17.82C161.416 17.932 161.752 18.1 162.016 18.324C162.28 18.54 162.476 18.812 162.604 19.14C162.74 19.46 162.808 19.824 162.808 20.232V23.676C162.808 23.764 162.776 23.84 162.712 23.904C162.648 23.968 162.572 24 162.484 24H160.384C160.296 24 160.22 23.968 160.156 23.904C160.092 23.84 160.06 23.764 160.06 23.676V23.34C159.948 23.5 159.804 23.64 159.628 23.76C159.46 23.872 159.268 23.96 159.052 24.024C158.836 24.088 158.604 24.12 158.356 24.12ZM159.184 22.344C159.344 22.344 159.48 22.312 159.592 22.248C159.712 22.184 159.804 22.084 159.868 21.948C159.932 21.804 159.964 21.628 159.964 21.42V21.408L159.256 21.564C159.048 21.612 158.908 21.676 158.836 21.756C158.764 21.836 158.728 21.92 158.728 22.008C158.728 22.064 158.744 22.12 158.776 22.176C158.816 22.224 158.868 22.264 158.932 22.296C159.004 22.328 159.088 22.344 159.184 22.344ZM164.153 24C164.065 24 163.989 23.968 163.925 23.904C163.861 23.84 163.829 23.764 163.829 23.676V18.084C163.829 17.996 163.861 17.92 163.925 17.856C163.989 17.792 164.065 17.76 164.153 17.76H166.253C166.341 17.76 166.417 17.792 166.481 17.856C166.545 17.92 166.577 17.996 166.577 18.084V18.504C166.833 18.28 167.117 18.1 167.429 17.964C167.749 17.828 168.089 17.76 168.449 17.76H169.025C169.113 17.76 169.189 17.792 169.253 17.856C169.317 17.92 169.349 17.996 169.349 18.084V19.956C169.349 20.044 169.317 20.12 169.253 20.184C169.189 20.248 169.113 20.28 169.025 20.28H167.477C167.237 20.28 167.057 20.34 166.937 20.46C166.817 20.58 166.757 20.76 166.757 21V23.676C166.757 23.764 166.725 23.84 166.661 23.904C166.597 23.968 166.521 24 166.433 24H164.153ZM172.428 24.12C172.084 24.12 171.76 24.072 171.456 23.976C171.16 23.872 170.896 23.712 170.664 23.496C170.44 23.272 170.26 22.984 170.124 22.632C169.988 22.28 169.908 21.852 169.884 21.348C169.876 21.164 169.872 21.004 169.872 20.868C169.872 20.732 169.876 20.576 169.884 20.4C169.9 19.928 169.976 19.52 170.112 19.176C170.248 18.824 170.428 18.536 170.652 18.312C170.884 18.088 171.152 17.92 171.456 17.808C171.76 17.696 172.084 17.64 172.428 17.64C172.764 17.64 173.064 17.692 173.328 17.796C173.6 17.892 173.832 18.028 174.024 18.204V15.804C174.024 15.716 174.056 15.64 174.12 15.576C174.184 15.512 174.26 15.48 174.348 15.48H176.568C176.656 15.48 176.732 15.512 176.796 15.576C176.86 15.64 176.892 15.716 176.892 15.804V23.676C176.892 23.764 176.86 23.84 176.796 23.904C176.732 23.968 176.656 24 176.568 24H174.528C174.44 24 174.364 23.968 174.3 23.904C174.236 23.84 174.204 23.764 174.204 23.676V23.4C174.012 23.616 173.772 23.792 173.484 23.928C173.196 24.056 172.844 24.12 172.428 24.12ZM173.424 21.972C173.576 21.972 173.692 21.944 173.772 21.888C173.86 21.832 173.92 21.752 173.952 21.648C173.992 21.544 174.016 21.42 174.024 21.276C174.04 21.092 174.048 20.944 174.048 20.832C174.048 20.712 174.04 20.564 174.024 20.388C174.016 20.26 173.988 20.152 173.94 20.064C173.9 19.976 173.836 19.908 173.748 19.86C173.668 19.812 173.56 19.788 173.424 19.788C173.28 19.788 173.164 19.816 173.076 19.872C172.996 19.928 172.936 20.008 172.896 20.112C172.864 20.216 172.84 20.34 172.824 20.484C172.8 20.748 172.8 21.012 172.824 21.276C172.84 21.42 172.864 21.544 172.896 21.648C172.936 21.752 172.996 21.832 173.076 21.888C173.164 21.944 173.28 21.972 173.424 21.972ZM183.716 26.64C183.036 26.64 182.468 26.552 182.012 26.376C181.564 26.208 181.204 26 180.932 25.752C180.66 25.512 180.464 25.272 180.344 25.032C180.224 24.8 180.16 24.62 180.152 24.492C180.144 24.404 180.172 24.328 180.236 24.264C180.308 24.2 180.388 24.168 180.476 24.168H182.816C182.904 24.168 182.972 24.188 183.02 24.228C183.076 24.276 183.12 24.336 183.152 24.408C183.192 24.472 183.232 24.528 183.272 24.576C183.312 24.624 183.36 24.656 183.416 24.672C183.48 24.696 183.56 24.708 183.656 24.708C183.776 24.708 183.872 24.68 183.944 24.624C184.024 24.576 184.08 24.5 184.112 24.396C184.152 24.292 184.172 24.16 184.172 24V23.208C183.988 23.368 183.764 23.496 183.5 23.592C183.236 23.68 182.928 23.724 182.576 23.724C182.2 23.724 181.86 23.676 181.556 23.58C181.252 23.484 180.992 23.332 180.776 23.124C180.56 22.908 180.388 22.628 180.26 22.284C180.132 21.94 180.056 21.516 180.032 21.012C180.024 20.804 180.024 20.6 180.032 20.4C180.056 19.928 180.128 19.52 180.248 19.176C180.376 18.824 180.548 18.536 180.764 18.312C180.988 18.088 181.252 17.92 181.556 17.808C181.86 17.696 182.2 17.64 182.576 17.64C182.968 17.64 183.312 17.716 183.608 17.868C183.912 18.02 184.16 18.216 184.352 18.456V18.084C184.352 17.996 184.384 17.92 184.448 17.856C184.512 17.792 184.588 17.76 184.676 17.76H186.776C186.864 17.76 186.94 17.792 187.004 17.856C187.068 17.92 187.1 17.996 187.1 18.084L187.112 23.796C187.112 24.468 186.96 25.012 186.656 25.428C186.352 25.844 185.944 26.148 185.432 26.34C184.92 26.54 184.348 26.64 183.716 26.64ZM183.572 21.636C183.708 21.636 183.816 21.612 183.896 21.564C183.984 21.516 184.048 21.448 184.088 21.36C184.136 21.272 184.164 21.164 184.172 21.036C184.18 20.972 184.184 20.864 184.184 20.712C184.184 20.552 184.18 20.444 184.172 20.388C184.164 20.26 184.136 20.152 184.088 20.064C184.048 19.976 183.984 19.908 183.896 19.86C183.816 19.812 183.708 19.788 183.572 19.788C183.428 19.788 183.312 19.816 183.224 19.872C183.144 19.928 183.084 20.008 183.044 20.112C183.012 20.216 182.988 20.34 182.972 20.484C182.956 20.636 182.956 20.788 182.972 20.94C182.988 21.084 183.012 21.208 183.044 21.312C183.084 21.416 183.144 21.496 183.224 21.552C183.312 21.608 183.428 21.636 183.572 21.636ZM190.184 24.12C189.728 24.12 189.324 24.036 188.972 23.868C188.62 23.7 188.344 23.472 188.144 23.184C187.952 22.896 187.856 22.572 187.856 22.212C187.856 21.628 188.092 21.172 188.564 20.844C189.044 20.508 189.684 20.272 190.484 20.136L191.756 19.932V19.92C191.756 19.712 191.736 19.56 191.696 19.464C191.664 19.368 191.564 19.32 191.396 19.32C191.284 19.32 191.192 19.344 191.12 19.392C191.056 19.432 190.984 19.492 190.904 19.572C190.816 19.66 190.704 19.704 190.568 19.704H188.528C188.448 19.704 188.38 19.68 188.324 19.632C188.276 19.584 188.256 19.52 188.264 19.44C188.272 19.288 188.336 19.112 188.456 18.912C188.576 18.704 188.76 18.504 189.008 18.312C189.264 18.12 189.588 17.96 189.98 17.832C190.38 17.704 190.86 17.64 191.42 17.64C191.964 17.64 192.436 17.7 192.836 17.82C193.244 17.932 193.58 18.1 193.844 18.324C194.108 18.54 194.304 18.812 194.432 19.14C194.568 19.46 194.636 19.824 194.636 20.232V23.676C194.636 23.764 194.604 23.84 194.54 23.904C194.476 23.968 194.4 24 194.312 24H192.212C192.124 24 192.048 23.968 191.984 23.904C191.92 23.84 191.888 23.764 191.888 23.676V23.34C191.776 23.5 191.632 23.64 191.456 23.76C191.288 23.872 191.096 23.96 190.88 24.024C190.664 24.088 190.432 24.12 190.184 24.12ZM191.012 22.344C191.172 22.344 191.308 22.312 191.42 22.248C191.54 22.184 191.632 22.084 191.696 21.948C191.76 21.804 191.792 21.628 191.792 21.42V21.408L191.084 21.564C190.876 21.612 190.736 21.676 190.664 21.756C190.592 21.836 190.556 21.92 190.556 22.008C190.556 22.064 190.572 22.12 190.604 22.176C190.644 22.224 190.696 22.264 190.76 22.296C190.832 22.328 190.916 22.344 191.012 22.344ZM195.981 24C195.893 24 195.817 23.968 195.753 23.904C195.689 23.84 195.657 23.764 195.657 23.676V18.084C195.657 17.996 195.689 17.92 195.753 17.856C195.817 17.792 195.893 17.76 195.981 17.76H197.961C198.049 17.76 198.125 17.792 198.189 17.856C198.253 17.92 198.285 17.996 198.285 18.084V18.48C198.421 18.296 198.633 18.116 198.921 17.94C199.217 17.756 199.561 17.656 199.953 17.64C200.897 17.608 201.529 17.936 201.849 18.624C202.033 18.344 202.293 18.112 202.629 17.928C202.965 17.736 203.317 17.64 203.685 17.64C204.093 17.64 204.461 17.732 204.789 17.916C205.125 18.1 205.393 18.388 205.593 18.78C205.793 19.172 205.893 19.684 205.893 20.316V23.676C205.893 23.764 205.861 23.84 205.797 23.904C205.733 23.968 205.657 24 205.569 24H203.457C203.369 24 203.293 23.968 203.229 23.904C203.165 23.84 203.133 23.764 203.133 23.676V20.376C203.133 20.248 203.113 20.14 203.073 20.052C203.033 19.964 202.977 19.9 202.905 19.86C202.841 19.812 202.757 19.788 202.653 19.788C202.557 19.788 202.473 19.812 202.401 19.86C202.329 19.9 202.273 19.964 202.233 20.052C202.201 20.14 202.185 20.248 202.185 20.376V23.676C202.185 23.764 202.153 23.84 202.089 23.904C202.025 23.968 201.949 24 201.861 24H199.749C199.661 24 199.585 23.968 199.521 23.904C199.457 23.84 199.425 23.764 199.425 23.676V20.376C199.425 20.248 199.405 20.14 199.365 20.052C199.325 19.964 199.269 19.9 199.197 19.86C199.133 19.812 199.049 19.788 198.945 19.788C198.849 19.788 198.765 19.812 198.693 19.86C198.621 19.908 198.565 19.976 198.525 20.064C198.485 20.144 198.465 20.248 198.465 20.376V23.676C198.465 23.764 198.433 23.84 198.369 23.904C198.305 23.968 198.229 24 198.141 24H195.981ZM210.147 24.12C209.099 24.12 208.263 23.864 207.639 23.352C207.023 22.832 206.715 22.012 206.715 20.892C206.715 20.876 206.715 20.86 206.715 20.844C206.715 20.828 206.715 20.816 206.715 20.808C206.731 20.12 206.879 19.54 207.159 19.068C207.447 18.596 207.843 18.24 208.347 18C208.859 17.76 209.455 17.64 210.135 17.64C210.919 17.64 211.563 17.792 212.067 18.096C212.571 18.392 212.943 18.788 213.183 19.284C213.431 19.772 213.555 20.312 213.555 20.904V21.264C213.555 21.352 213.523 21.428 213.459 21.492C213.395 21.556 213.319 21.588 213.231 21.588H209.655C209.655 21.596 209.655 21.604 209.655 21.612C209.655 21.62 209.655 21.632 209.655 21.648C209.655 21.808 209.667 21.944 209.691 22.056C209.723 22.16 209.775 22.24 209.847 22.296C209.919 22.352 210.011 22.38 210.123 22.38C210.171 22.38 210.211 22.372 210.243 22.356C210.283 22.34 210.319 22.316 210.351 22.284C210.391 22.244 210.431 22.204 210.471 22.164C210.543 22.092 210.603 22.048 210.651 22.032C210.699 22.008 210.771 21.996 210.867 21.996H213.135C213.215 21.996 213.279 22.02 213.327 22.068C213.383 22.116 213.407 22.18 213.399 22.26C213.391 22.412 213.319 22.596 213.183 22.812C213.055 23.02 212.859 23.224 212.595 23.424C212.331 23.624 211.995 23.792 211.587 23.928C211.179 24.056 210.699 24.12 210.147 24.12ZM209.655 20.088H210.615V20.076C210.615 19.9 210.595 19.756 210.555 19.644C210.523 19.532 210.471 19.452 210.399 19.404C210.327 19.348 210.239 19.32 210.135 19.32C210.031 19.32 209.943 19.348 209.871 19.404C209.799 19.452 209.743 19.532 209.703 19.644C209.671 19.756 209.655 19.9 209.655 20.076V20.088Z" fill="black"/>
</svg>
