<svg width="946" height="233" viewBox="0 0 946 233" fill="none" xmlns="http://www.w3.org/2000/svg">
<path d="M208.938 219.085C209.587 220.379 209.911 221.781 209.911 223.292C209.911 224.802 209.154 226.312 207.64 227.822C206.342 229.117 204.72 229.764 202.774 229.764H136.264C129.559 229.764 124.909 226.851 122.313 221.026L94.4114 159.217H81.1095V221.026C81.1095 223.4 80.2443 225.449 78.514 227.175C76.7836 228.901 74.7289 229.764 72.3496 229.764H8.75982C6.38061 229.764 4.32584 228.901 2.5955 227.175C0.865168 225.449 0 223.4 0 221.026V11.9736C0 9.60047 0.865168 7.55093 2.5955 5.825C4.32584 4.09907 6.38061 3.23611 8.75982 3.23611H104.793C135.939 3.23611 160.272 10.2477 177.792 24.2708C195.312 38.0782 204.071 58.0343 204.071 84.1389C204.071 110.028 192.392 130.415 169.032 145.301L208.938 219.085ZM81.1095 63.4278V97.7306H104.793C109.552 97.7306 113.229 96.2204 115.824 93.2C118.42 89.9639 119.718 85.9727 119.718 81.2264C119.718 76.4801 118.42 72.381 115.824 68.9292C113.445 65.2616 109.768 63.4278 104.793 63.4278H81.1095Z" fill="#F6F6F6"/>
<path d="M263.829 23.9472C283.728 7.98241 310.007 0 342.667 0C375.327 0 401.499 8.09028 421.181 24.2708C441.08 40.2356 451.029 62.7805 451.029 91.9055V142.389C451.029 171.945 441.188 194.49 421.506 210.024C402.039 225.341 375.76 233 342.667 233C309.575 233 283.187 225.341 263.504 210.024C244.038 194.49 234.305 171.945 234.305 142.389V91.9055C234.305 62.5648 244.146 39.912 263.829 23.9472ZM325.148 163.424C329.473 167.738 335.313 169.896 342.667 169.896C350.021 169.896 355.861 167.738 360.187 163.424C364.513 159.109 366.676 152.529 366.676 143.683V89.3167C366.676 80.687 364.513 74.2148 360.187 69.9C355.861 65.3694 350.021 63.1042 342.667 63.1042C335.313 63.1042 329.473 65.3694 325.148 69.9C320.822 74.2148 318.659 80.687 318.659 89.3167V143.683C318.659 152.529 320.822 159.109 325.148 163.424Z" fill="#F6F6F6"/>
<path d="M509.692 23.9472C529.591 7.98241 555.87 0 588.53 0C621.19 0 647.362 8.09028 667.044 24.2708C686.943 40.2356 696.893 62.7805 696.893 91.9055V142.389C696.893 171.945 687.051 194.49 667.369 210.024C647.902 225.341 621.623 233 588.53 233C555.438 233 529.05 225.341 509.367 210.024C489.901 194.49 480.168 171.945 480.168 142.389V91.9055C480.168 62.5648 490.009 39.912 509.692 23.9472ZM571.011 163.424C575.336 167.738 581.176 169.896 588.53 169.896C595.884 169.896 601.724 167.738 606.05 163.424C610.376 159.109 612.539 152.529 612.539 143.683V89.3167C612.539 80.687 610.376 74.2148 606.05 69.9C601.724 65.3694 595.884 63.1042 588.53 63.1042C581.176 63.1042 575.336 65.3694 571.011 69.9C566.685 74.2148 564.522 80.687 564.522 89.3167V143.683C564.522 152.529 566.685 159.109 571.011 163.424Z" fill="#F6F6F6"/>
<path d="M945.027 219.085C945.676 220.163 946 221.566 946 223.292C946 224.802 945.243 226.312 943.729 227.822C942.431 229.117 940.809 229.764 938.862 229.764H864.891C858.618 229.764 854.184 227.283 851.589 222.321L812.007 151.774V221.026C812.007 223.4 811.142 225.449 809.412 227.175C807.681 228.901 805.627 229.764 803.247 229.764H741.28C738.9 229.764 736.846 228.901 735.115 227.175C733.385 225.449 732.52 223.4 732.52 221.026V11.9736C732.52 9.60047 733.385 7.55093 735.115 5.825C736.846 4.09907 738.9 3.23611 741.28 3.23611H803.247C805.627 3.23611 807.681 4.09907 809.412 5.825C811.142 7.55093 812.007 9.60047 812.007 11.9736V76.0486L848.669 10.3556C851.048 5.60926 855.374 3.23611 861.646 3.23611H933.347C935.294 3.23611 936.916 3.9912 938.214 5.50139C939.728 6.79584 940.485 8.30602 940.485 10.0319C940.485 11.5421 940.16 12.8366 939.511 13.9153L881.112 111.646L945.027 219.085Z" fill="#F6F6F6"/>
</svg>
