<svg width="424" height="103" viewBox="0 0 424 103" fill="none" xmlns="http://www.w3.org/2000/svg">
<path d="M4.47394 0.199219H45.9459C59.9619 0.199219 71.4819 3.70322 80.5059 10.7112C89.6259 17.6232 94.1859 27.3192 94.1859 39.7992V61.2552C94.1859 74.3112 89.7699 84.1992 80.9379 90.9192C72.1059 97.6392 60.4899 100.999 46.0899 100.999H4.47394C3.41794 100.999 2.50594 100.615 1.73794 99.8472C0.969938 99.0792 0.585938 98.1672 0.585938 97.1112V4.08722C0.585938 3.03122 0.969938 2.11922 1.73794 1.35122C2.50594 0.58322 3.41794 0.199219 4.47394 0.199219ZM36.5859 28.2792V72.9192H45.9459C49.2099 72.9192 51.8019 71.9592 53.7219 70.0392C55.7379 68.0232 56.7459 65.0952 56.7459 61.2552V39.7992C56.7459 32.1192 53.1459 28.2792 45.9459 28.2792H36.5859Z" fill="#F6F6F6"/>
<path d="M169.752 0.199219H197.976C199.032 0.199219 199.944 0.58322 200.712 1.35122C201.48 2.11922 201.864 3.03122 201.864 4.08722V61.9752C201.864 75.4152 197.688 85.5432 189.336 92.3592C180.984 99.0792 169.608 102.439 155.208 102.439C140.904 102.439 129.528 99.0792 121.08 92.3592C112.728 85.6392 108.552 75.5112 108.552 61.9752V4.08722C108.552 3.03122 108.936 2.11922 109.704 1.35122C110.472 0.58322 111.384 0.199219 112.44 0.199219H140.664C141.72 0.199219 142.632 0.58322 143.4 1.35122C144.168 2.11922 144.552 3.03122 144.552 4.08722V62.4072C144.552 69.7992 148.104 73.4952 155.208 73.4952C162.312 73.4952 165.864 69.7992 165.864 62.4072V4.08722C165.864 3.03122 166.248 2.11922 167.016 1.35122C167.784 0.58322 168.696 0.199219 169.752 0.199219Z" fill="#F6F6F6"/>
<path d="M279.885 0.199219H305.949C307.005 0.199219 307.917 0.58322 308.685 1.35122C309.453 2.11922 309.837 3.03122 309.837 4.08722V97.1112C309.837 98.1672 309.453 99.0792 308.685 99.8472C307.917 100.615 307.005 100.999 305.949 100.999H283.197C280.701 100.999 278.733 99.8952 277.293 97.6872L252.957 60.9672V97.1112C252.957 98.1672 252.573 99.0792 251.805 99.8472C251.037 100.615 250.125 100.999 249.069 100.999H223.005C221.949 100.999 221.037 100.615 220.269 99.8472C219.501 99.0792 219.117 98.1672 219.117 97.1112V4.08722C219.117 3.03122 219.501 2.11922 220.269 1.35122C221.037 0.58322 221.949 0.199219 223.005 0.199219H245.757C248.445 0.199219 250.413 1.30322 251.661 3.51122L275.997 43.3992V4.08722C275.997 3.03122 276.381 2.11922 277.149 1.35122C277.917 0.58322 278.829 0.199219 279.885 0.199219Z" fill="#F6F6F6"/>
<path d="M422.843 96.2472C423.131 96.7272 423.275 97.3512 423.275 98.1192C423.275 98.7912 422.939 99.4632 422.267 100.135C421.691 100.711 420.971 100.999 420.107 100.999H387.275C384.491 100.999 382.523 99.8952 381.371 97.6872L363.803 66.2952V97.1112C363.803 98.1672 363.419 99.0792 362.651 99.8472C361.883 100.615 360.971 100.999 359.915 100.999H332.411C331.355 100.999 330.443 100.615 329.675 99.8472C328.907 99.0792 328.523 98.1672 328.523 97.1112V4.08722C328.523 3.03122 328.907 2.11922 329.675 1.35122C330.443 0.58322 331.355 0.199219 332.411 0.199219H359.915C360.971 0.199219 361.883 0.58322 362.651 1.35122C363.419 2.11922 363.803 3.03122 363.803 4.08722V32.5992L380.075 3.36722C381.131 1.25522 383.051 0.199219 385.835 0.199219H417.659C418.523 0.199219 419.243 0.53522 419.819 1.20722C420.491 1.78322 420.827 2.45522 420.827 3.22322C420.827 3.89522 420.683 4.47122 420.395 4.95122L394.475 48.4392L422.843 96.2472Z" fill="#F6F6F6"/>
</svg>
