<svg width="99" height="28" viewBox="0 0 99 28" fill="none" xmlns="http://www.w3.org/2000/svg">
<g clip-path="url(#clip0_4544_1259)">
<path d="M20.196 22.356C20.556 23.22 20.736 23.844 20.736 24.228C20.736 25.14 19.992 25.908 18.504 26.532C17.736 26.868 17.112 27.036 16.632 27.036C16.176 27.036 15.792 26.928 15.48 26.712C15.192 26.472 14.976 26.232 14.832 25.992C14.592 25.536 13.656 23.364 12.024 19.476L10.908 19.548H6.372V23.616C6.372 24.168 6.348 24.588 6.3 24.876C6.276 25.14 6.168 25.452 5.976 25.812C5.64 26.46 4.704 26.784 3.168 26.784C1.488 26.784 0.504 26.34 0.216 25.452C0.0720001 25.044 0 24.42 0 23.58V3.6C0 3.048 0.0119999 2.64 0.036 2.376C0.084 2.088 0.204 1.764 0.396 1.404C0.732 0.756001 1.668 0.432001 3.204 0.432001H10.98C13.092 0.432001 15.144 1.2 17.136 2.736C18.096 3.48 18.888 4.488 19.512 5.76C20.136 7.032 20.448 8.448 20.448 10.008C20.448 12.72 19.548 14.952 17.748 16.704C18.276 17.976 19.092 19.86 20.196 22.356ZM6.372 13.176H10.98C11.676 13.176 12.372 12.912 13.068 12.384C13.764 11.856 14.112 11.064 14.112 10.008C14.112 8.952 13.764 8.16 13.068 7.632C12.372 7.08 11.652 6.804 10.908 6.804H6.372V13.176ZM34.7434 0.108001C38.2954 0.108001 41.3794 1.392 43.9954 3.96C46.6114 6.528 47.9194 9.72 47.9194 13.536C47.9194 17.328 46.6714 20.568 44.1754 23.256C41.6794 25.92 38.6074 27.252 34.9594 27.252C31.3114 27.252 28.2034 25.932 25.6354 23.292C23.0914 20.652 21.8194 17.508 21.8194 13.86C21.8194 11.868 22.1794 10.008 22.8994 8.28C23.6194 6.528 24.5794 5.064 25.7794 3.888C26.9794 2.712 28.3594 1.788 29.9194 1.116C31.4794 0.444001 33.0874 0.108001 34.7434 0.108001ZM28.1914 13.68C28.1914 15.816 28.8754 17.556 30.2434 18.9C31.6354 20.22 33.1834 20.88 34.8874 20.88C36.5914 20.88 38.1274 20.232 39.4954 18.936C40.8634 17.64 41.5474 15.9 41.5474 13.716C41.5474 11.532 40.8514 9.78 39.4594 8.46C38.0914 7.14 36.5554 6.48 34.8514 6.48C33.1474 6.48 31.6114 7.152 30.2434 8.496C28.8754 9.816 28.1914 11.544 28.1914 13.68ZM62.6574 0.108001C66.2094 0.108001 69.2934 1.392 71.9094 3.96C74.5254 6.528 75.8334 9.72 75.8334 13.536C75.8334 17.328 74.5854 20.568 72.0894 23.256C69.5934 25.92 66.5214 27.252 62.8734 27.252C59.2254 27.252 56.1174 25.932 53.5494 23.292C51.0054 20.652 49.7334 17.508 49.7334 13.86C49.7334 11.868 50.0934 10.008 50.8134 8.28C51.5334 6.528 52.4934 5.064 53.6934 3.888C54.8934 2.712 56.2734 1.788 57.8334 1.116C59.3934 0.444001 61.0014 0.108001 62.6574 0.108001ZM56.1054 13.68C56.1054 15.816 56.7894 17.556 58.1574 18.9C59.5494 20.22 61.0974 20.88 62.8014 20.88C64.5054 20.88 66.0414 20.232 67.4094 18.936C68.7774 17.64 69.4614 15.9 69.4614 13.716C69.4614 11.532 68.7654 9.78 67.3734 8.46C66.0054 7.14 64.4694 6.48 62.7654 6.48C61.0614 6.48 59.5254 7.152 58.1574 8.496C56.7894 9.816 56.1054 11.544 56.1054 13.68ZM89.4915 13.572C93.1635 17.1 95.7675 19.752 97.3035 21.528C98.0955 22.416 98.4915 23.172 98.4915 23.796C98.4915 24.396 98.0115 25.116 97.0515 25.956C96.0915 26.772 95.2995 27.18 94.6755 27.18C94.0755 27.18 93.3435 26.676 92.4795 25.668L84.5595 16.632V23.652C84.5595 24.228 84.5355 24.648 84.4875 24.912C84.4635 25.176 84.3555 25.488 84.1635 25.848C83.8275 26.496 82.8915 26.82 81.3555 26.82C79.6755 26.82 78.6915 26.364 78.4035 25.452C78.2595 25.068 78.1875 24.456 78.1875 23.616V3.6C78.1875 3.048 78.1995 2.64 78.2235 2.376C78.2715 2.088 78.3915 1.764 78.5835 1.404C78.9195 0.756001 79.8555 0.432001 81.3915 0.432001C83.0715 0.432001 84.0675 0.876001 84.3795 1.764C84.4995 2.172 84.5595 2.796 84.5595 3.636V10.512C87.8235 6.84 90.4635 3.828 92.4795 1.476C93.3195 0.492 94.0515 0 94.6755 0C95.2995 0 96.0915 0.42 97.0515 1.26C98.0115 2.076 98.4915 2.796 98.4915 3.42C98.4915 4.02 98.1315 4.74 97.4115 5.58C96.0195 7.188 93.8595 9.396 90.9315 12.204L89.4915 13.572Z" fill="black"/>
</g>
<defs>
<clipPath id="clip0_4544_1259">
<rect width="99" height="28" fill="white"/>
</clipPath>
</defs>
</svg>
